<svg xmlns="http://www.w3.org/2000/svg" viewBox="0 0 64 64" role="img" aria-label="BotiCart icon">
  <defs>
    <linearGradient id="g" x1="0" y1="0" x2="1" y2="1">
      <stop offset="0" stop-color="#92C6EF"/>
      <stop offset="1" stop-color="#527FA2"/>
    </linearGradient>
  </defs>
  <rect width="64" height="64" rx="14" fill="none"/>
  <path d="M12 20h8l6 24h25c3.6 0 6.4-2.5 7.2-6.1L61 27H30.4c-1.5 0-2.9-.6-4-1.6l-5.3-4.9c-1.3-1.2-3-1.9-4.8-1.9H12z" fill="url(#g)"/>
  <path d="M15 23h5.4l5.6 21h23.8c2.3 0 4.4-1.6 4.9-3.9L58 30H31.4c-2 0-3.9-.8-5.3-2.2l-4.1-3.8c-1.6-1.5-3.7-2.3-5.9-2.3H15z" fill="#2F88C8" opacity="0.55"/>
  <circle cx="33" cy="18" r="12" fill="none" stroke="url(#g)" stroke-width="5"/>
  <circle cx="29" cy="18" r="2.4" fill="#0F2333"/>
  <circle cx="39" cy="18" r="2.4" fill="#0F2333"/>
  <circle cx="24" cy="52" r="4.3" fill="#235C8F"/>
  <circle cx="47" cy="52" r="4.3" fill="#235C8F"/>
</svg>